<?xml version="1.0" encoding="UTF-8" standalone="no"?>
<svg
   xmlns:dc="http://purl.org/dc/elements/1.1/"
   xmlns:cc="http://creativecommons.org/ns#"
   xmlns:rdf="http://www.w3.org/1999/02/22-rdf-syntax-ns#"
   xmlns:svg="http://www.w3.org/2000/svg"
   xmlns="http://www.w3.org/2000/svg"
   viewBox="0 0 533.33331 242.66667"
   height="242.66667"
   width="533.33331"
   xml:space="preserve"
   id="svg2"
   version="1.1"><metadata
     id="metadata8"><rdf:RDF><cc:Work
         rdf:about=""><dc:format>image/svg+xml</dc:format><dc:type
           rdf:resource="http://purl.org/dc/dcmitype/StillImage" /></cc:Work></rdf:RDF></metadata><defs
     id="defs6" /><g
     transform="matrix(1.3333333,0,0,-1.3333333,0,242.66667)"
     id="g10"><g
       transform="scale(0.1)"
       id="g12"><path
         id="path14"
         style="fill:#3aa1c5;fill-opacity:1;fill-rule:evenodd;stroke:none"
         d="m 0,809.34 c 99.3398,-41.371 200.98,-76.18 305,-104.539 60.98,-15.969 122.66,-28.821 185,-38.469 62.969,-9.031 126.129,-15.352 189.488,-19.031 261.332,-17.961 518.482,6.679 771.492,74.031 121.32,37.648 238.51,85.508 351.52,143.469 112.66,59.34 227.5,114.539 344.49,165.509 87.66,35 177.66,63.17 270,84.49 127.66,27.7 256.64,42.19 386.99,43.52 111.33,3.32 222,-1.84 332,-15.51 125.66,-15 248.51,-42.15 368.51,-81.48 173.32,-65.35 337.5,-149.342 492.5,-251.99 -87.65,37.301 -175.86,73.82 -264.49,109.488 -112.03,43.981 -227.19,77.5 -345.51,100.512 -83.36,15 -167.34,24.64 -251.99,28.98 -44.69,3.01 -89.34,4.34 -134.02,3.98 -29.34,-0.66 -57.66,-0.82 -85,-0.46 -122.66,-3.68 -244.65,-15.67 -365.98,-36.02 C 2425,993.16 2303.83,956.988 2186.48,907.301 2068.16,853.98 1951.13,797.5 1835.47,737.809 1719.8,680.469 1599.65,635.469 1475,602.809 1348.63,571.172 1220.47,553.16 1090.47,548.832 1034.8,546.84 979.141,546.48 923.48,547.809 c -22.351,0.671 -44.339,1.839 -65.98,3.523 -32.699,1.328 -65,3.469 -97.031,6.477 -63.321,6.332 -126.129,15.511 -188.481,27.5 -31.988,5 -63.508,11.531 -94.488,19.492 -29.691,8.679 -59.34,17.187 -89.02,25.508 -57.351,16.992 -113.011,38.011 -167,63.011 C 167.809,716.641 115.469,742.809 64.4883,771.84 42.8086,784.141 21.3281,796.641 0,809.34" /><path
         id="path16"
         style="fill:#636e70;fill-opacity:1;fill-rule:evenodd;stroke:none"
         d="m 1698.98,902.809 c -57.65,-22.34 -116.68,-27.149 -176.99,-14.489 -62.34,21.68 -112.5,60.508 -150.51,116.48 -43.98,55.67 -75.35,117.86 -93.98,186.53 -17.03,69.65 -16.68,139.14 0.98,208.47 38.36,166.68 125.15,301.68 260.5,405 7.66,5 15.36,9.85 23.01,14.54 -106.68,4.33 -210.15,-12.35 -310.51,-50 -100.66,-37.7 -194.33,-86.68 -281.011,-147.04 -96.328,-66.64 -183.989,-143.16 -262.969,-229.49 -80,-86.64 -147.699,-182.15 -203.012,-286.48 -30.66,-56.68 -55.66,-115.67 -75,-176.99 -11.679,-36.68 -34.179,-58.68 -67.5,-66.02 -33.359,-6.992 -66.828,-6.84 -100.508,0.508 -31.679,6.332 -62.5,15.82 -92.5,28.473 63.68,-39.641 131.84,-55.153 204.5,-46.481 33,8.008 57.5,26.989 73.508,56.989 11.641,26.019 22.813,52.191 33.481,78.519 56.679,116.992 128.359,223.982 215,320.972 117.031,134.69 254.531,243.01 412.501,325 53.01,28.36 108.51,49.54 166.52,63.52 18.32,4.65 37.15,7.15 56.49,7.5 -27.35,-43.98 -48.68,-90.66 -63.99,-140 -13.36,-40 -24.84,-80.35 -34.49,-121.02 -7.7,-30.66 -13.01,-61.64 -16.02,-92.96 -4.64,-72.7 7,-142.86 35,-210.51 36.33,-86.33 91.18,-158.67 164.5,-216.99 -0.32,0.308 -0.82,0.66 -1.49,0.969 53.32,-42.649 113.99,-59.137 181.99,-49.489 42.66,6.68 82.86,20.508 120.51,41.481 -6.01,-2.301 -11.99,-4.641 -18.01,-6.992" /><path
         id="path18"
         style="fill:#636e70;fill-opacity:1;fill-rule:evenodd;stroke:none"
         d="m 1191.48,1577.81 c -4.33,-16.33 -9.18,-32.65 -14.49,-48.98 -7.34,-24.34 -13.83,-49.03 -19.49,-74.03 -12.03,-51.64 -18.52,-104.14 -19.53,-157.5 -0.31,-25.97 1.01,-51.83 4.02,-77.5 3.32,-25.66 7.66,-50.97 13.01,-75.97 10.66,-42.35 22.97,-84.18 36.99,-125.51 -29.69,34.65 -52.85,73.32 -69.49,116.02 -21.37,52.65 -31.37,107.14 -30,163.47 0.98,55 11.13,108.17 30.47,159.49 17.34,43.36 40.19,83.52 68.51,120.51" /><path
         id="path20"
         style="fill:#002a46;fill-opacity:1;fill-rule:nonzero;stroke:none"
         d="m 452.77,83.0508 c 10,-15.9414 19.73,-27.8906 29.218,-35.7813 9.571,-7.9297 20.633,-11.8789 33.133,-11.8789 h 1.867 v -25 h -8.437 c -18.672,0 -33.903,0.6602 -45.781,2.0313 -11.872,1.3281 -21.989,3.9492 -30.309,7.8086 -8.359,3.8281 -15.473,9.2578 -21.41,16.25 -5.93,6.9609 -12.301,16.0976 -19.063,27.3476 L 311.52,197.73 H 262.148 V 75.2305 c 0,-8.75 1.293,-15.7813 3.903,-21.0899 2.699,-5.3125 6.25,-9.3398 10.629,-12.0312 4.449,-2.7305 9.609,-4.5313 15.468,-5.4688 5.942,-0.8593 12.231,-1.25 18.903,-1.25 h 7.82 v -25 H 145.738 v 25 h 7.5 c 6.641,0 12.891,0.3907 18.75,1.25 5.942,0.9375 11.102,2.7383 15.473,5.4688 4.449,2.6914 8.008,6.7187 10.629,12.0312 2.691,5.3086 4.058,12.3399 4.058,21.0899 V 369.609 c 0,8.75 -1.367,15.782 -4.058,21.09 -2.621,5.321 -6.18,9.422 -10.629,12.352 -4.371,2.89 -9.531,4.758 -15.473,5.621 -5.859,0.937 -12.109,1.406 -18.75,1.406 h -7.5 v 25 h 160 c 51.563,0 89.883,-9.609 115,-28.75 25.203,-19.058 37.813,-47.777 37.813,-86.098 0,-15.851 -2.61,-29.761 -7.813,-41.71 -5.117,-11.879 -11.828,-22.192 -20.148,-30.942 -8.25,-8.668 -17.621,-15.898 -28.129,-21.719 -10.43,-5.738 -20.902,-10.39 -31.41,-13.91 z M 262.148,225.551 h 41.872 c 17.39,0 31.878,1.91 43.441,5.777 11.641,3.942 20.98,9.762 27.969,17.5 6.949,7.813 11.949,17.5 15,29.063 3.011,11.64 4.531,25.199 4.531,40.629 0,15.929 -1.68,29.41 -5,40.46 -3.242,11.141 -8.551,20.239 -15.941,27.348 -7.418,7.07 -16.95,12.223 -28.59,15.473 -11.68,3.199 -25.942,4.84 -42.809,4.84 h -40.473 z m 414.84,77.648 c -22.109,0 -39.136,-8.98 -51.09,-26.871 -11.878,-17.93 -18.867,-44.137 -20.937,-78.598 H 741.68 c 0,15.711 -1.211,30.04 -3.59,42.969 -2.309,13.012 -5.942,24.141 -10.942,33.442 -5,9.257 -11.636,16.41 -19.847,21.41 -8.242,5.07 -18.352,7.648 -30.313,7.648 z M 684.18,4.60938 c -21.481,0 -40.782,3.58984 -57.969,10.78122 -17.109,7.2696 -31.563,17.8907 -43.441,31.8789 -11.79,13.9414 -20.86,31.0118 -27.18,51.25 -6.25,20.1915 -9.379,43.1995 -9.379,69.0585 0,55.512 11.41,97.262 34.219,125.313 22.89,28.129 55.468,42.187 97.66,42.187 19.14,0 36.398,-3.047 51.711,-9.058 15.32,-5.942 28.289,-14.93 38.91,-26.879 10.629,-11.871 18.789,-26.68 24.527,-44.371 5.711,-17.739 8.602,-38.29 8.602,-61.719 V 165.859 H 603.711 c 0.391,-21.8 2.578,-40.468 6.559,-56.089 3.949,-15.5512 9.609,-28.3598 17.031,-38.4419 7.5,-10 16.648,-17.4179 27.5,-22.1875 10.82,-4.6914 23.32,-7.0312 37.5,-7.0312 10.32,0 19.847,1.1289 28.597,3.4414 8.832,2.2578 16.801,5.3476 23.903,9.2187 7.187,3.9414 13.519,8.3516 19.07,13.2813 5.508,4.8789 10.039,10.039 13.59,15.4687 2.699,-1.1797 5.238,-3.5586 7.66,-7.1914 2.379,-3.6679 3.59,-8.0468 3.59,-13.1289 0,-5.9297 -2.152,-12.3398 -6.41,-19.2187 C 778.012,37.1094 771.52,30.7383 762.77,24.9219 754.102,19.0586 743.238,14.2188 730.121,10.3906 717.07,6.55859 701.762,4.60938 684.18,4.60938 Z" /><path
         id="path22"
         style="fill:#002a46;fill-opacity:1;fill-rule:nonzero;stroke:none"
         d="m 834.059,304.301 v 25 h 148.75 v -25 h -7.649 c -12,0 -20.941,-2.352 -26.879,-7.031 -5.859,-4.61 -8.75,-11.84 -8.75,-21.719 0,-3.25 0.348,-6.571 1.09,-10 0.828,-3.36 1.957,-7.27 3.438,-11.723 l 40.472,-112.5 c 2.5,-6.988 5.078,-14.687 7.809,-23.129 2.699,-8.359 5.238,-16.558 7.66,-24.6795 2.38,-8.1289 4.57,-15.8593 6.56,-23.1289 1.96,-7.3008 3.32,-13.4414 4.06,-18.4414 h 2.04 c 0.93,4.2617 2.5,9.5313 4.68,15.7813 2.27,6.3281 4.85,13.2109 7.66,20.6289 2.81,7.5 5.7,15.0816 8.75,22.8126 3.01,7.699 5.86,15.156 8.59,22.348 L 1085,249.449 c 1.95,4.77 3.36,9.422 4.22,13.91 0.82,4.45 1.25,8.321 1.25,11.563 0,10.308 -3.24,17.738 -9.69,22.348 -6.48,4.679 -16.33,7.031 -29.53,7.031 h -4.37 v 25 h 127.5 v -25 h -7.19 c -5.86,0 -10.78,-0.629 -14.85,-1.879 -4.06,-1.25 -7.77,-3.672 -11.09,-7.192 -3.24,-3.429 -6.37,-8.199 -9.37,-14.21 -3.05,-5.942 -6.37,-13.68 -10,-23.129 L 1028.12,10.3906 H 973.75 L 878.121,272.73 c -2.301,6.141 -4.68,11.25 -7.18,15.321 -2.5,4.058 -5.429,7.258 -8.75,9.679 -3.242,2.5 -6.992,4.219 -11.25,5.161 -4.3,0.937 -9.339,1.41 -15.16,1.41 z" /><path
         id="path24"
         style="fill:#002a46;fill-opacity:1;fill-rule:nonzero;stroke:none"
         d="m 1198.28,35.3906 c 6.56,0 12.74,0.3907 18.6,1.25 5.93,0.9375 11.13,2.7383 15.62,5.4688 4.45,2.6914 8.01,6.7187 10.62,12.0312 2.58,5.3086 3.91,12.3399 3.91,21.0899 V 263.672 c 0,8.75 -1.33,15.777 -3.91,21.098 -2.61,5.308 -6.17,9.41 -10.62,12.339 -4.49,2.891 -9.69,4.84 -15.62,5.782 -5.86,0.937 -12.04,1.41 -18.6,1.41 h -1.87 v 25 h 106.4 V 78.0508 c 0,-9.3008 1.29,-16.7227 3.91,-22.3516 2.58,-5.6211 6.09,-9.9609 10.47,-12.9687 4.37,-3.0391 9.53,-5 15.47,-5.9297 6.01,-0.9414 12.34,-1.4102 18.9,-1.4102 h 7.82 v -25 h -169.07 v 25 z m 40.31,390.3084 c 0,6.961 0.82,12.742 2.5,17.352 1.76,4.679 4.22,8.469 7.35,11.398 3.12,2.891 6.72,4.93 10.78,6.102 4.06,1.129 8.48,1.719 13.28,1.719 4.69,0 9.06,-0.59 13.12,-1.719 4.07,-1.172 7.58,-3.211 10.63,-6.102 3.01,-2.929 5.39,-6.719 7.19,-11.398 1.87,-4.61 2.81,-10.391 2.81,-17.352 0,-6.988 -0.94,-12.808 -2.81,-17.5 -1.8,-4.609 -4.18,-8.359 -7.19,-11.25 -3.05,-2.929 -6.56,-5 -10.63,-6.25 -4.06,-1.25 -8.43,-1.871 -13.12,-1.871 -4.8,0 -9.22,0.621 -13.28,1.871 -4.06,1.25 -7.66,3.321 -10.78,6.25 -3.13,2.891 -5.59,6.641 -7.35,11.25 -1.68,4.692 -2.5,10.512 -2.5,17.5 z" /><path
         id="path26"
         style="fill:#002a46;fill-opacity:1;fill-rule:nonzero;stroke:none"
         d="m 1530.82,303.199 c -22.11,0 -39.14,-8.98 -51.09,-26.871 -11.88,-17.93 -18.87,-44.137 -20.94,-78.598 h 136.72 c 0,15.711 -1.21,30.04 -3.6,42.969 -2.3,13.012 -5.93,24.141 -10.93,33.442 -5,9.257 -11.64,16.41 -19.85,21.41 -8.24,5.07 -18.36,7.648 -30.31,7.648 z m 7.19,-298.58962 c -21.49,0 -40.78,3.58984 -57.97,10.78122 -17.11,7.2696 -31.56,17.8907 -43.44,31.8789 -11.8,13.9414 -20.86,31.0118 -27.19,51.25 -6.25,20.1915 -9.37,43.1995 -9.37,69.0585 0,55.512 11.41,97.262 34.22,125.313 22.89,28.129 55.47,42.187 97.65,42.187 19.14,0 36.41,-3.047 51.72,-9.058 15.32,-5.942 28.28,-14.93 38.91,-26.879 10.62,-11.871 18.79,-26.68 24.53,-44.371 5.7,-17.739 8.59,-38.29 8.59,-61.719 v -27.192 h -198.12 c 0.39,-21.8 2.58,-40.468 6.56,-56.089 3.95,-15.5512 9.61,-28.3598 17.03,-38.4419 7.5,-10 16.64,-17.4179 27.5,-22.1875 10.82,-4.6914 23.32,-7.0312 37.5,-7.0312 10.32,0 19.85,1.1289 28.6,3.4414 8.82,2.2578 16.79,5.3476 23.9,9.2187 7.19,3.9414 13.52,8.3516 19.07,13.2813 5.5,4.8789 10.03,10.039 13.59,15.4687 2.69,-1.1797 5.23,-3.5586 7.66,-7.1914 2.38,-3.6679 3.59,-8.0468 3.59,-13.1289 0,-5.9297 -2.15,-12.3398 -6.41,-19.2187 -4.29,-6.8711 -10.78,-13.2422 -19.53,-19.0586 -8.67,-5.8633 -19.53,-10.7031 -32.65,-14.5313 -13.05,-3.83201 -28.36,-5.78122 -45.94,-5.78122 z" /><path
         id="path28"
         style="fill:#002a46;fill-opacity:1;fill-rule:nonzero;stroke:none"
         d="m 1968.67,327.578 59.53,-176.25 c 2.39,-7.187 4.89,-14.918 7.5,-23.129 2.58,-8.238 5.04,-16.398 7.35,-24.527 2.38,-8.0509 4.53,-15.6212 6.4,-22.8126 1.96,-7.1094 3.44,-13.1289 4.38,-18.1289 h 1.72 c 1.75,9.7695 4.57,21.8789 8.43,36.25 3.83,14.4605 8.79,31.2895 14.85,50.4685 l 29.69,95.942 c 1.44,5 2.69,10.347 3.75,16.089 1.13,5.711 1.71,10.2 1.71,13.442 0,10.308 -3.28,17.738 -9.84,22.348 -6.48,4.679 -16.37,7.031 -29.69,7.031 h -4.06 v 25 h 127.19 v -25 h -7.5 c -5.86,0 -10.9,-0.59 -15.16,-1.723 -4.3,-1.168 -8.12,-3.437 -11.56,-6.879 -3.36,-3.359 -6.48,-8.039 -9.38,-14.058 -2.81,-5.942 -5.7,-13.871 -8.59,-23.75 L 2068.67,10.3906 h -47.65 l -70.94,209.3794 -10.63,39.21 -84.22,-248.5894 h -47.18 L 1730.23,272.73 c -2.3,6.141 -4.68,11.25 -7.18,15.321 -2.5,4.058 -5.43,7.258 -8.75,9.679 -3.36,2.5 -7.15,4.219 -11.41,5.161 -4.18,0.937 -9.18,1.41 -15,1.41 h -1.72 v 25 h 146.88 v -25 h -7.82 c -11.79,0 -20.7,-1.801 -26.71,-5.321 -6.06,-3.429 -9.07,-10 -9.07,-19.679 0,-3.25 0.51,-7.192 1.57,-11.879 1.13,-4.613 2.26,-9.141 3.43,-13.594 l 27.97,-100 c 1.88,-7.109 3.83,-14.918 5.94,-23.437 2.19,-8.551 4.14,-17.032 5.94,-25.469 1.87,-8.4415 3.59,-16.3712 5.15,-23.7501 1.57,-7.3008 2.82,-13.4414 3.75,-18.4414 h 1.88 c 0.94,5 2.19,10.8203 3.75,17.5 1.64,6.6484 3.59,13.789 5.78,21.4105 2.27,7.699 4.69,15.507 7.19,23.437 2.58,7.891 5.15,15.473 7.65,22.652 l 61.88,179.848 z" /><path
         id="path30"
         style="fill:#002a46;fill-opacity:1;fill-rule:nonzero;stroke:none"
         d="m 2473.79,10.3906 v 25 h 7.81 c 6.76,0 13.13,0.4688 19.06,1.4102 5.94,0.9297 11.02,2.8906 15.32,5.9297 4.37,3.0078 7.85,7.3476 10.47,12.9687 2.57,5.6289 3.9,13.0508 3.9,22.3516 V 217.422 H 2336.91 V 78.0508 c 0,-9.3008 1.29,-16.7227 3.91,-22.3516 2.7,-5.6211 6.17,-9.9609 10.47,-12.9687 4.37,-3.0391 9.53,-5 15.47,-5.9297 6.01,-0.9414 12.38,-1.4102 19.06,-1.4102 h 7.81 v -25 h -173.12 v 25 h 7.5 c 6.76,0 13.12,0.4688 19.06,1.4102 5.94,0.9297 11.09,2.8906 15.47,5.9297 4.45,3.0078 7.97,7.3476 10.47,12.9687 2.58,5.6289 3.9,13.0508 3.9,22.3516 V 369.609 c 0,8.75 -1.36,15.782 -4.06,21.09 -2.62,5.321 -6.17,9.422 -10.62,12.352 -4.38,2.89 -9.53,4.758 -15.47,5.621 -5.86,0.937 -12.11,1.406 -18.75,1.406 h -7.5 v 25 h 173.12 v -25 h -7.81 c -6.68,0 -13.05,-0.547 -19.06,-1.558 -5.94,-0.942 -11.1,-2.93 -15.47,-5.942 -4.3,-2.93 -7.77,-7.187 -10.47,-12.808 -2.62,-5.629 -3.91,-13.09 -3.91,-22.348 V 247.109 h 193.44 v 120.313 c 0,9.258 -1.33,16.719 -3.9,22.348 -2.62,5.621 -6.1,9.878 -10.47,12.808 -4.3,3.012 -9.38,5 -15.32,5.942 -5.93,1.011 -12.3,1.558 -19.06,1.558 h -7.81 v 25 h 173.12 v -25 h -7.5 c -6.87,0 -13.28,-0.547 -19.21,-1.558 -5.86,-0.942 -11.02,-2.93 -15.47,-5.942 -4.38,-2.93 -7.89,-7.187 -10.47,-12.808 -2.5,-5.629 -3.75,-13.09 -3.75,-22.348 V 75.2305 c 0,-8.75 1.29,-15.7813 3.9,-21.0899 2.58,-5.3125 6.14,-9.3398 10.63,-12.0312 4.45,-2.7305 9.61,-4.5313 15.47,-5.4688 5.94,-0.8593 12.22,-1.25 18.9,-1.25 h 7.5 v -25 z" /><path
         id="path32"
         style="fill:#002a46;fill-opacity:1;fill-rule:nonzero;stroke:none"
         d="m 2982.93,75.2305 c 0,-8.75 1.29,-15.7813 3.91,-21.0899 2.57,-5.3125 6.09,-9.3398 10.46,-12.0312 4.46,-2.7305 9.69,-4.5313 15.63,-5.4688 5.94,-0.8593 12.19,-1.25 18.75,-1.25 h 1.72 v -25 h -94.38 l -7.81,48.2813 h -2.97 c -5.94,-11.25 -12.58,-20.3906 -19.84,-27.3438 -7.31,-6.9883 -15,-12.457 -23.13,-16.4062 -8.12,-3.9805 -16.68,-6.64065 -25.62,-8.12112 -8.87,-1.44922 -18.13,-2.1914 -27.81,-2.1914 -15.63,0 -29.61,2.1914 -41.88,6.56252 -12.19,4.4492 -22.46,11.4492 -30.78,20.9375 -8.36,9.5703 -14.69,21.7187 -19.06,36.4101 -4.3,14.6797 -6.41,32.1795 -6.41,52.5005 v 142.652 c 0,8.75 -1.33,15.777 -3.91,21.098 -2.61,5.308 -6.17,9.41 -10.62,12.339 -4.49,2.891 -9.69,4.84 -15.63,5.782 -5.85,0.937 -12.03,1.41 -18.59,1.41 h -1.87 v 25 H 2789.8 V 123.98 c 0,-13.039 0.98,-24.6011 2.97,-34.6792 2.07,-10 5.47,-18.5195 10.16,-25.4727 4.77,-6.9883 11.17,-12.3086 19.22,-15.9375 8.01,-3.5508 18.01,-5.3125 30,-5.3125 13.2,0 24.53,2.3438 33.9,7.0313 9.38,4.6914 17.07,11.1719 23.13,19.5312 6.13,8.4375 10.66,18.5196 13.59,30.3086 2.89,11.8788 4.38,24.9998 4.38,39.3788 v 122.5 c 0,9.262 -1.33,16.762 -3.91,22.5 -2.62,5.703 -6.09,10.082 -10.47,13.121 -4.37,3.012 -9.53,5 -15.47,5.942 -5.85,0.937 -12.14,1.41 -18.9,1.41 h -1.88 v 25 h 106.41 z" /><path
         id="path34"
         style="fill:#002a46;fill-opacity:1;fill-rule:nonzero;stroke:none"
         d="m 3223.59,35.3906 v -25 h -160 v 25 h 5 c 6.76,0 13.05,0.4688 18.91,1.4102 5.94,0.9297 11.09,2.8906 15.47,5.9297 4.37,3.0078 7.85,7.3476 10.47,12.9687 2.58,5.6289 3.9,13.0508 3.9,22.3516 V 263.672 c 0,8.75 -1.32,15.777 -3.9,21.098 -2.62,5.308 -6.17,9.41 -10.63,12.339 -4.49,2.891 -9.69,4.84 -15.62,5.782 -5.86,0.937 -12.03,1.41 -18.6,1.41 h -1.87 v 25 h 96.25 l 7.81,-48.281 h 2.81 c 6.25,11.011 12.82,20.07 19.69,27.179 6.88,7.071 14.1,12.582 21.72,16.571 7.7,3.941 15.82,6.64 24.38,8.121 8.63,1.449 17.69,2.187 27.18,2.187 15.71,0 29.73,-2.308 42.03,-6.879 12.27,-4.488 22.7,-11.398 31.25,-20.777 8.64,-9.371 15.24,-21.481 19.85,-36.25 4.57,-14.692 6.87,-32.192 6.87,-52.5 V 78.0508 c 0,-9.3008 1.1,-16.7227 3.28,-22.3516 2.27,-5.6211 5.47,-9.9609 9.54,-12.9687 4.06,-3.0391 8.82,-5 14.37,-5.9297 5.63,-0.9414 11.76,-1.4102 18.44,-1.4102 h 2.03 v -25 H 3310.47 V 215.699 c 0,13.012 -1.21,24.531 -3.59,34.531 -2.31,10.079 -6.02,18.641 -11.1,25.629 -5.12,6.95 -11.83,12.231 -20.16,15.782 -8.35,3.629 -18.51,5.468 -30.46,5.468 -13.56,0 -24.96,-2.66 -34.22,-7.968 -9.18,-5.231 -16.56,-12.301 -22.19,-21.25 -5.63,-8.871 -9.65,-19.141 -12.03,-30.782 -2.42,-11.558 -3.6,-23.711 -3.6,-36.41 V 75.2305 c 0,-8.75 1.29,-15.7813 3.91,-21.0899 2.58,-5.3125 6.09,-9.3398 10.47,-12.0312 4.45,-2.7305 9.69,-4.5313 15.62,-5.4688 5.94,-0.8593 12.19,-1.25 18.76,-1.25 z" /><path
         id="path36"
         style="fill:#002a46;fill-opacity:1;fill-rule:nonzero;stroke:none"
         d="m 3588.05,36.0195 c 7.18,0 13.75,0.3516 19.68,1.0899 6.02,0.6992 12.19,1.7187 18.44,2.9687 v -26.25 c -2.5,-1.1679 -5.78,-2.3086 -9.84,-3.4375 -4.06,-1.12888 -8.52,-2.10935 -13.28,-2.96872 -4.69,-0.94141 -9.69,-1.60157 -15,-2.03125 -5.24,-0.51172 -10.12,-0.78125 -14.69,-0.78125 -15.12,0 -28.13,1.64062 -39.06,4.83984 -10.86,3.12888 -19.77,8.28128 -26.72,15.47268 -6.88,7.1875 -12.03,16.6367 -15.47,28.4375 -3.44,11.8711 -5.16,26.289 -5.16,43.2812 V 295.391 h -45.31 v 23.75 c 7.19,0 15.08,1.449 23.75,4.379 8.63,2.89 16.25,7.73 22.81,14.531 6.76,7.258 12.23,16.008 16.41,26.25 4.14,10.187 7.81,22.89 10.94,38.121 h 27.18 v -73.121 h 77.97 v -33.91 h -77.97 V 94.9219 c 0,-20.3125 4.11,-35.2305 12.35,-44.6914 8.2,-9.4922 19.22,-14.211 32.97,-14.211 z" /><path
         id="path38"
         style="fill:#002a46;fill-opacity:1;fill-rule:nonzero;stroke:none"
         d="m 3830.9,10.3906 h -171.72 v 25 h 1.87 c 6.76,0 13.05,0.4688 18.91,1.4102 5.94,0.9297 11.09,2.8906 15.47,5.9297 4.37,3.0078 7.85,7.3476 10.47,12.9687 2.58,5.6289 3.9,13.0508 3.9,22.3516 V 263.672 c 0,8.75 -1.32,15.777 -3.9,21.098 -2.62,5.308 -6.17,9.41 -10.63,12.339 -4.49,2.891 -9.68,4.84 -15.62,5.782 -5.86,0.937 -12.03,1.41 -18.6,1.41 h -1.87 v 25 h 91.56 l 11.25,-58.91 h 2.97 c 3.83,8.828 7.81,17.187 11.88,25 4.06,7.89 9.06,14.769 15,20.629 5.93,5.929 13.2,10.539 21.87,13.902 8.75,3.437 19.69,5.156 32.81,5.156 21.76,0 37.89,-3.828 48.44,-11.406 10.51,-7.5 15.78,-18.121 15.78,-31.871 0,-6.18 -1.05,-11.879 -3.12,-17.192 -2,-5.23 -5.24,-9.687 -9.69,-13.437 -4.38,-3.75 -10.08,-6.684 -17.03,-8.75 -6.99,-1.992 -15.55,-2.973 -25.63,-2.973 0,16.449 -2.34,28.281 -7.03,35.473 -4.61,7.269 -12.73,10.937 -24.37,10.937 -7.31,0 -13.87,-2.109 -19.69,-6.25 -5.86,-4.179 -10.94,-9.687 -15.31,-16.558 -4.3,-6.879 -7.93,-14.813 -10.94,-23.75 -3.05,-8.871 -5.47,-17.973 -7.34,-27.352 -1.8,-9.371 -3.09,-18.711 -3.91,-27.969 -0.74,-9.289 -1.09,-17.73 -1.09,-25.308 V 75.2305 c 0,-8.75 1.29,-15.7813 3.9,-21.0899 2.58,-5.3125 6.1,-9.3398 10.47,-12.0312 4.45,-2.7305 9.69,-4.5313 15.63,-5.4688 5.93,-0.8593 12.18,-1.25 18.75,-1.25 h 16.56 z" /></g></g></svg>